HIERARCHY
ROOT locator2
{
  OFFSET 53.6172 30.1899 0.816905
  CHANNELS 6 Xposition Yposition Zposition Zrotation Xrotation Yrotation
  JOINT koshi
  {
    OFFSET 0 0 0
    CHANNELS 6 Xposition Yposition Zposition Zrotation Xrotation Yrotation
    JOINT sippo01
    {
      OFFSET 0 42.8363 -0.548134
      CHANNELS 6 Xposition Yposition Zposition Zrotation Xrotation Yrotation
      JOINT sippo02
      {
        OFFSET 0 44.0461 -3.28882
        CHANNELS 6 Xposition Yposition Zposition Zrotation Xrotation Yrotation
        JOINT sippo03
        {
          OFFSET 0 34.1929 -2.46662
          CHANNELS 6 Xposition Yposition Zposition Zrotation Xrotation Yrotation
          JOINT sippo04
          {
            OFFSET 0 30.0959 -1.75404
            CHANNELS 6 Xposition Yposition Zposition Zrotation Xrotation Yrotation
            JOINT sippo05
            {
              OFFSET 0 28.3637 -1.75404
              CHANNELS 6 Xposition Yposition Zposition Zrotation Xrotation Yrotation
              JOINT sippo06
              {
                OFFSET 0 31.6071 -3.2043
                CHANNELS 6 Xposition Yposition Zposition Zrotation Xrotation Yrotation
                End Site
                {
                  OFFSET 0 0 0
                }
              }
            }
          }
        }
      }
    }
    JOINT R_momo
    {
      OFFSET -27.891 13.5892 3.92723
      CHANNELS 6 Xposition Yposition Zposition Zrotation Xrotation Yrotation
      JOINT R_hiza
      {
        OFFSET 0 28.01 1.8232
        CHANNELS 6 Xposition Yposition Zposition Zrotation Xrotation Yrotation
        JOINT R_ashi
        {
          OFFSET 0 24.3992 -2.49174
          CHANNELS 6 Xposition Yposition Zposition Zrotation Xrotation Yrotation
          End Site
          {
            OFFSET 0 0 0
          }
        }
      }
    }
    JOINT L_momo
    {
      OFFSET 27.891 13.5892 3.92714
      CHANNELS 6 Xposition Yposition Zposition Zrotation Xrotation Yrotation
      JOINT L_hiza
      {
        OFFSET 0 28.0098 1.82319
        CHANNELS 6 Xposition Yposition Zposition Zrotation Xrotation Yrotation
        JOINT L_ashi
        {
          OFFSET 0 24.3992 -2.49171
          CHANNELS 6 Xposition Yposition Zposition Zrotation Xrotation Yrotation
          End Site
          {
            OFFSET 0 0 0
          }
        }
      }
    }
  }
  JOINT hara
  {
    OFFSET 0 2.15392 0
    CHANNELS 6 Xposition Yposition Zposition Zrotation Xrotation Yrotation
    JOINT mune
    {
      OFFSET 0 62.0609 0.472494
      CHANNELS 6 Xposition Yposition Zposition Zrotation Xrotation Yrotation
      JOINT R_kata
      {
        OFFSET 22.6695 9.65301 -5.3622
        CHANNELS 6 Xposition Yposition Zposition Zrotation Xrotation Yrotation
        JOINT R_hiji
        {
          OFFSET 0 25.813 1.69098
          CHANNELS 6 Xposition Yposition Zposition Zrotation Xrotation Yrotation
          JOINT R_te
          {
            OFFSET 0 28.5636 -0.966307
            CHANNELS 6 Xposition Yposition Zposition Zrotation Xrotation Yrotation
            End Site
            {
              OFFSET 0 0 0
            }
          }
        }
      }
      JOINT L_kata
      {
        OFFSET -22.6695 9.65298 -5.3622
        CHANNELS 6 Xposition Yposition Zposition Zrotation Xrotation Yrotation
        JOINT L_hiji
        {
          OFFSET 0 25.813 1.69102
          CHANNELS 6 Xposition Yposition Zposition Zrotation Xrotation Yrotation
          JOINT L_te
          {
            OFFSET 0 28.5636 -0.966295
            CHANNELS 6 Xposition Yposition Zposition Zrotation Xrotation Yrotation
            End Site
            {
              OFFSET 0 0 0
            }
          }
        }
      }
      JOINT kubi
      {
        OFFSET 0 23.1438 -0.944988
        CHANNELS 6 Xposition Yposition Zposition Zrotation Xrotation Yrotation
        JOINT atama
        {
          OFFSET 0 20.8625 4.12737
          CHANNELS 6 Xposition Yposition Zposition Zrotation Xrotation Yrotation
          JOINT ago
          {
            OFFSET 0 7.552 -7.58201
            CHANNELS 6 Xposition Yposition Zposition Zrotation Xrotation Yrotation
            End Site
            {
              OFFSET 0 0 0
            }
          }
        }
      }
    }
  }
}
MOTION
Frames:	4
Frame Time:	0.0333333
-9.86954 31.4816 2.44121 -90 -3.50835e-015 -90 0 0 0 178.016 -3.52 0.195712 4.76837e-007 42.8363 -0.54814 -1.93062 -6.35381 7.66641 -8.75764e-008 44.0461 -3.28882 -8.26473 16.7985 2.16429 2.47156e-006 34.1929 -2.46662 -9.63787 12.2074 -3.21793 5.9756e-007 30.0959 -1.75404 -6.69035 14.6098 -8.8445 -3.64365e-006 28.3637 -1.75403 -4.68182 -4.01213 4.90734 2.72111e-005 31.6071 -3.2043 -1.15652 -5.94698 -17.9502 -27.891 13.5892 3.92724 141.068 -18.9167 -40.2976 3.94213e-006 28.01 1.8232 0.574412 -73.5208 0.996712 7.715e-007 24.3992 -2.49172 -106.39 84.4713 142.633 27.891 13.5892 3.92713 -98.8286 -24.2662 55.9713 4.47957e-008 28.0098 1.82319 -2.05679 -65.9345 5.96693 3.63694e-006 24.3992 -2.49173 136.802 76.7795 178.287 6.09085e-007 2.15392 1.06581e-014 0.727231 -0.730801 -1.94763 -1.1176e-008 62.0609 0.472494 6.76728e-008 1.00178e-005 7.55256e-010 22.6695 9.65298 -5.3622 -168.334 0.291021 27.2922 6.72829e-008 25.813 1.69098 166.145 -89.3657 161.233 4.06173e-006 28.5636 -0.966311 59.2465 -33.7951 -88.2879 -22.6695 9.65298 -5.3622 133.539 -1.5399 -49.1363 -1.02244e-007 25.813 1.69101 -179.733 -77.0818 -178.227 -4.13493e-006 28.5636 -0.966296 -44.5594 27.895 106.469 1.49011e-008 23.1438 -0.944992 10.8969 6.38684 15.3215 4.97343e-006 20.8625 4.12738 8.76719 4.13215 17.0673 -1.95112e-006 7.55202 -7.58201 -9.26238e-006 -1.58455 8.67616e-006 
-9.69742 31.5512 2.49244 -90 -3.50835e-015 -90 0 0 0 177.792 -3.57489 0.169476 4.76837e-007 42.8363 -0.54814 -2.11551 -6.08805 7.84539 -7.21638e-008 44.0461 -3.28882 -8.74759 15.7203 2.3093 2.64595e-006 34.1929 -2.46662 -10.0813 12.6363 -2.40963 7.50979e-007 30.0959 -1.75404 -6.63235 14.809 -9.16985 -3.51899e-006 28.3637 -1.75403 -4.89409 -4.4291 4.87002 2.74573e-005 31.6071 -3.2043 -1.35208 -6.99743 -18.4403 -27.891 13.5892 3.92724 140.954 -19.0047 -40.5351 3.94189e-006 28.01 1.8232 0.677996 -73.8936 0.780415 7.96636e-007 24.3992 -2.49172 -108.226 84.3336 144.625 27.891 13.5892 3.92713 -98.8255 -24.4829 56.3416 3.66147e-008 28.0098 1.82319 -2.06197 -65.8016 5.60675 3.64606e-006 24.3992 -2.49173 136.924 76.7011 177.848 6.09085e-007 2.15392 3.55271e-015 0.143914 0.117221 -2.16095 -1.11759e-008 62.0609 0.472494 6.76728e-008 1.00178e-005 7.55255e-010 22.6695 9.65298 -5.3622 -167.076 0.187782 24.5943 1.5094e-007 25.813 1.69098 133.369 -89.79 128.268 3.85064e-006 28.5636 -0.966311 61.2364 -33.1315 -88.4471 -22.6695 9.65298 -5.3622 135.767 -3.22876 -52.6049 -1.37988e-007 25.813 1.69101 -179.649 -77.6516 -177.792 -4.15799e-006 28.5636 -0.966296 -38.4956 30.3453 106.779 1.49011e-008 23.1438 -0.944992 10.0031 6.5436 14.4705 4.95507e-006 20.8625 4.12738 8.41495 4.13586 16.0026 -1.88498e-006 7.55202 -7.58201 -9.09875e-006 -2.67599 8.4914e-006 
-9.5236 31.6215 2.54417 -90 -3.50835e-015 -90 0 0 0 177.565 -3.63031 0.142558 4.76837e-007 42.8363 -0.54814 -2.30388 -5.81871 8.02949 -5.64717e-008 44.0461 -3.28882 -8.41958 14.6631 2.23119 2.57219e-006 34.1929 -2.46662 -10.5296 13.0662 -1.58681 7.44346e-007 30.0959 -1.75404 -6.57425 15.0084 -8.77902 -3.57722e-006 28.3637 -1.75403 -5.10817 -4.84842 4.82931 2.75099e-005 31.6071 -3.2043 -1.55041 -8.05799 -18.9353 -27.891 13.5892 3.92724 140.727 -19.1746 -40.7742 3.94457e-006 28.01 1.8232 0.787774 -74.2694 0.568965 8.16486e-007 24.3992 -2.49172 -109.971 84.1905 146.527 27.891 13.5892 3.92713 -98.8207 -24.7011 56.7176 2.8452e-008 28.0098 1.82319 -2.04102 -65.735 5.44365 3.65032e-006 24.3992 -2.49173 137.045 76.623 177.548 6.09085e-007 2.15392 7.10543e-015 -0.44615 0.974138 -2.35854 -1.11759e-008 62.0609 0.472494 6.76728e-008 1.00178e-005 7.55254e-010 22.6695 9.65298 -5.3622 -165.806 0.0791646 21.8761 2.36175e-007 25.813 1.69098 17.3547 -89.4856 12.034 3.61532e-006 28.5636 -0.966311 63.1846 -32.3944 -88.6414 -22.6695 9.65298 -5.3622 137.967 -5.06769 -55.9826 -1.79783e-007 25.813 1.69101 -179.532 -78.6219 -177.095 -4.16277e-006 28.5636 -0.966297 -31.681 31.5076 107.992 1.49011e-008 23.1438 -0.944992 8.91251 6.4215 13.3063 4.93869e-006 20.8625 4.12738 7.85971 4.06057 14.5851 -1.7967e-006 7.55202 -7.58201 -6.08695e-007 -3.77674 8.85661e-006 
-9.35316 31.6905 2.5949 -90 -3.50835e-015 -90 0 0 0 177.34 -3.68531 0.114891 4.76837e-007 42.8363 -0.54814 -2.48383 -5.71518 8.19982 -4.1547e-008 44.0461 -3.28882 -8.10336 13.6253 2.16646 2.49726e-006 34.1929 -2.46662 -10.9724 13.4867 -0.771449 7.38305e-007 30.0959 -1.75404 -6.51692 15.2052 -8.39296 -3.6373e-006 28.3637 -1.75403 -5.32014 -5.26221 4.78605 2.7559e-005 31.6071 -3.2043 -1.74658 -9.09731 -18.6968 -27.891 13.5892 3.92724 140.447 -19.2185 -41.0667 3.94691e-006 28.01 1.8232 0.896116 -74.6376 0.359633 8.35357e-007 24.3992 -2.49172 -111.582 84.0467 148.29 27.891 13.5892 3.92713 -98.7369 -24.7207 57.1159 2.78282e-008 28.0098 1.82319 -2.03075 -65.7357 5.41407 3.65003e-006 24.3992 -2.49173 137.241 76.525 177.172 6.09085e-007 2.15392 7.10543e-015 -1.02495 1.81448 -2.53542 -1.1176e-008 62.0609 0.472494 6.76728e-008 1.00178e-005 7.55255e-010 22.6695 9.65298 -5.3622 -164.559 -0.57576 19.3663 3.28984e-007 25.813 1.69098 6.89149 -88.721 1.35444 3.37514e-006 28.5636 -0.966311 65.0353 -31.6087 -88.8672 -22.6695 9.65298 -5.3622 139.388 -7.82981 -60.0286 -2.71999e-007 25.813 1.69101 -179.334 -80.318 -176.177 -4.10122e-006 28.5636 -0.966297 -25.0833 33.0489 109.809 1.49011e-008 23.1438 -0.944992 7.66359 6.02858 12.0345 4.92019e-006 20.8625 4.12738 7.15919 3.75718 13.0536 -1.7057e-006 7.55202 -7.58201 4.04746e-007 -4.78854 8.90968e-006 
